<?xml version="1.0" encoding="utf-8"?>
<!-- Generator: Adobe Illustrator 16.0.0, SVG Export Plug-In . SVG Version: 6.00 Build 0)  -->
<!DOCTYPE svg PUBLIC "-//W3C//DTD SVG 1.1//EN" "http://www.w3.org/Graphics/SVG/1.1/DTD/svg11.dtd">
<svg version="1.1" id="Ebene_1" xmlns="http://www.w3.org/2000/svg" xmlns:xlink="http://www.w3.org/1999/xlink" x="0px" y="0px"
	 width="28.35px" height="28.35px" viewBox="0 0 28.35 28.35" enable-background="new 0 0 28.35 28.35" xml:space="preserve">
<circle fill="#202630" cx="14.174" cy="14.174" r="14.173"/>
<path fill="#F0B90E" d="M18.995,21.905c-0.128,0-0.256-0.049-0.354-0.146l-2.411-2.41c-0.094-0.094-0.146-0.221-0.146-0.354
	c0-0.134,0.053-0.261,0.146-0.354l2.411-2.41c0.195-0.194,0.512-0.194,0.707,0l2.057,2.058l4.109-4.113l-1.699-1.703l-2.059,2.056
	c-0.094,0.095-0.221,0.146-0.354,0.146l0,0c-0.133,0-0.26-0.053-0.354-0.146l-2.408-2.409c-0.195-0.195-0.195-0.513,0-0.707
	l2.057-2.057l-1.704-1.703l-2.057,2.057c-0.194,0.194-0.512,0.194-0.707,0c-0.194-0.195-0.194-0.513,0-0.707l2.409-2.409
	c0.195-0.195,0.512-0.195,0.707,0l2.412,2.41c0.094,0.094,0.146,0.221,0.146,0.354c0,0.132-0.053,0.261-0.146,0.354L19.7,11.766
	l1.7,1.703l2.06-2.057c0.094-0.095,0.221-0.146,0.354-0.146l0,0c0.133,0,0.261,0.053,0.354,0.147l2.406,2.411
	c0.194,0.194,0.194,0.511,0,0.707l-4.816,4.819c-0.188,0.188-0.521,0.188-0.707,0l-2.057-2.057l-1.704,1.703l2.058,2.057
	c0.195,0.195,0.195,0.512,0,0.707C19.251,21.856,19.123,21.905,18.995,21.905z"/>
<path fill="#F0B90E" d="M9.357,21.903c-0.128,0-0.256-0.049-0.353-0.146l-2.412-2.408c-0.094-0.094-0.147-0.221-0.147-0.354
	c0-0.134,0.054-0.261,0.146-0.354l2.056-2.057L6.946,14.88l-2.058,2.056c-0.094,0.094-0.221,0.146-0.354,0.146l0,0
	c-0.134,0-0.261-0.054-0.354-0.146l-2.408-2.41c-0.194-0.194-0.194-0.512,0-0.707L6.589,9c0.188-0.188,0.52-0.188,0.707,0
	l2.056,2.057l1.705-1.703L9.001,7.297c-0.195-0.195-0.195-0.512,0-0.707c0.194-0.195,0.512-0.195,0.707,0l2.411,2.411
	c0.094,0.094,0.146,0.221,0.146,0.354s-0.053,0.261-0.146,0.354l-2.412,2.41c-0.195,0.194-0.513,0.194-0.707,0l-2.057-2.058
	l-4.109,4.112l1.702,1.703l2.058-2.058c0.094-0.094,0.221-0.146,0.354-0.146l0,0c0.132,0,0.26,0.053,0.354,0.146l2.407,2.411
	c0.194,0.195,0.194,0.513,0,0.707l-2.056,2.058l1.704,1.7l2.056-2.055c0.194-0.195,0.512-0.195,0.707,0
	c0.194,0.195,0.194,0.512,0,0.707l-2.41,2.408C9.613,21.854,9.485,21.903,9.357,21.903z"/>
<path fill="#F0B90E" d="M14.175,17.085c-0.133,0-0.26-0.053-0.354-0.146l-2.409-2.41c-0.195-0.194-0.195-0.512,0-0.707l2.409-2.409
	c0.188-0.188,0.521-0.188,0.707,0l2.41,2.409c0.195,0.195,0.195,0.513,0,0.707l-2.41,2.41
	C14.435,17.032,14.308,17.085,14.175,17.085z M12.473,14.175l1.703,1.703l1.703-1.703l-1.703-1.703L12.473,14.175z"/>
<path fill="#F0B90E" d="M14.175,7.446c-0.128,0-0.256-0.049-0.354-0.146l-2.409-2.41c-0.195-0.195-0.195-0.512,0-0.707l2.409-2.41
	c0.195-0.194,0.513-0.194,0.707,0l2.41,2.41c0.195,0.195,0.195,0.512,0,0.707l-2.41,2.41C14.431,7.397,14.303,7.446,14.175,7.446z
	 M12.472,4.536l1.703,1.703l1.703-1.703l-1.703-1.703L12.472,4.536z"/>
<path fill="#F0B90E" d="M14.175,26.725c-0.128,0-0.256-0.049-0.354-0.146l-2.409-2.409c-0.195-0.195-0.195-0.512,0-0.707
	l2.409-2.412c0.188-0.188,0.521-0.188,0.707,0l2.41,2.412c0.195,0.195,0.195,0.512,0,0.707l-2.41,2.409
	C14.431,26.676,14.303,26.725,14.175,26.725z M12.473,23.815l1.703,1.702l1.703-1.702l-1.703-1.705L12.473,23.815z"/>
</svg>
